<?xml version="1.0" encoding="UTF-8" standalone="no"?>
<!-- Created with Inkscape (http://www.inkscape.org/) -->

<svg
   xmlns:dc="http://purl.org/dc/elements/1.1/"
   xmlns:cc="http://creativecommons.org/ns#"
   xmlns:rdf="http://www.w3.org/1999/02/22-rdf-syntax-ns#"
   xmlns:svg="http://www.w3.org/2000/svg"
   xmlns="http://www.w3.org/2000/svg"
   xmlns:sodipodi="http://sodipodi.sourceforge.net/DTD/sodipodi-0.dtd"
   xmlns:inkscape="http://www.inkscape.org/namespaces/inkscape"
   width="179.45"
   height="35.59"
   id="svg6095"
   version="1.1"
   inkscape:version="0.47 r22583"
   sodipodi:docname="New document 3">
  <defs
     id="defs6097">
    <inkscape:perspective
       sodipodi:type="inkscape:persp3d"
       inkscape:vp_x="0 : 526.18109 : 1"
       inkscape:vp_y="0 : 1000 : 0"
       inkscape:vp_z="744.09448 : 526.18109 : 1"
       inkscape:persp3d-origin="372.04724 : 350.78739 : 1"
       id="perspective6103" />
    <inkscape:perspective
       id="perspective6082"
       inkscape:persp3d-origin="0.5 : 0.33333333 : 1"
       inkscape:vp_z="1 : 0.5 : 1"
       inkscape:vp_y="0 : 1000 : 0"
       inkscape:vp_x="0 : 0.5 : 1"
       sodipodi:type="inkscape:persp3d" />
  </defs>
  <sodipodi:namedview
     id="base"
     pagecolor="#ffffff"
     bordercolor="#666666"
     borderopacity="1.0"
     inkscape:pageopacity="0.0"
     inkscape:pageshadow="2"
     inkscape:zoom="4.9306463"
     inkscape:cx="89.105639"
     inkscape:cy="18.583533"
     inkscape:document-units="px"
     inkscape:current-layer="layer1"
     showgrid="false"
     inkscape:window-width="1024"
     inkscape:window-height="708"
     inkscape:window-x="-4"
     inkscape:window-y="-4"
     inkscape:window-maximized="1" />
  <metadata
     id="metadata6100">
    <rdf:RDF>
      <cc:Work
         rdf:about="">
        <dc:format>image/svg+xml</dc:format>
        <dc:type
           rdf:resource="http://purl.org/dc/dcmitype/StillImage" />
        <dc:title></dc:title>
      </cc:Work>
    </rdf:RDF>
  </metadata>
  <g
     inkscape:label="Layer 1"
     inkscape:groupmode="layer"
     id="layer1"
     transform="translate(-128.41786,-410.70816)">
    <path
       d="m 212.19942,438.33442 0,-3.345 -9.925,0 c -0.25375,0 -0.29625,-0.1475 -0.29625,-0.38 l 0,-2.81375 8.90875,0 0,-3.1975 -8.90875,0 0,-2.3275 c 0,-0.23125 0.0425,-0.4225 0.29625,-0.4225 l 9.6925,0 0,-3.345 -11.34375,0 c -1.35375,0 -2.24375,0.93125 -2.24375,2.56125 l 0,10.68875 c 0,1.62875 0.89,2.58125 2.24375,2.58125 l 11.57625,0"
       style="fill:#252775;fill-opacity:1;fill-rule:evenodd;stroke:none"
       id="path3196" />
    <path
       d="m 194.52817,438.29192 0,-14.73 c 0,-2.70875 -1.29125,-3.9575 -3.4075,-3.9575 -1.7775,0 -2.94125,0.995 -3.7875,2.985 l -4.995,11.91375 -5.0575,-11.91375 c -0.84625,-1.99 -2.01,-2.985 -3.78875,-2.985 -2.095,0 -3.40625,1.24875 -3.40625,3.9575 l 0,14.73 3.83,0 0,-14.2225 5.1425,12.00125 c 0.6775,1.65 1.735,2.53875 3.2375,2.53875 1.56625,0 2.5825,-0.88875 3.28,-2.53875 l 5.14375,-12.1075 0,14.32875 3.80875,0"
       style="fill:#252775;fill-opacity:1;fill-rule:evenodd;stroke:none"
       id="path3198" />
    <path
       d="m 306.88192,422.50317 -3.57625,0 0,10.89875 -7.11,-9.67 c -0.59375,-0.805 -1.29125,-1.41875 -2.77375,-1.41875 -1.58625,0 -2.56,1.01625 -2.56,2.58375 l 0,13.4575 3.555,0 0,-11.0475 7.11125,9.79875 c 0.80375,1.10125 1.8625,1.41875 2.8775,1.41875 1.355,0 2.47625,-0.84625 2.47625,-2.66625 l 0,-13.355"
       style="fill:#252775;fill-opacity:1;fill-rule:evenodd;stroke:none"
       id="path3200" />
    <path
       d="m 257.82692,438.29192 0,-6.9425 9.6075,0 0,-3.3225 -9.6075,0 0,-4.1475 c 0,-0.25375 0.0425,-0.445 0.29625,-0.445 l 10.81375,0 0,-3.47 -12.6125,0 c -1.41875,0 -2.3275,0.97375 -2.3275,2.66625 l 0,15.66125 3.83,0"
       style="fill:#252775;fill-opacity:1;fill-rule:evenodd;stroke:none"
       id="path3202" />
    <path
       d="m 226.82317,434.98942 c 0.25375,0 0.36,-0.12625 0.36,-0.40125 l 0,-4.8475 3.7025,0 0,5.99 c 0,1.62875 -0.8675,2.56125 -2.2425,2.56125 l -5.7775,0 c -5.545,0 -8.12625,-2.43375 -8.12625,-7.89375 0,-5.545 2.30625,-7.915 8.08375,-7.915 l 7.53375,0 0,3.32125 -7.47,0 c -3.51375,0 -4.445,1.5025 -4.445,4.635 0,3.23875 1.2075,4.57125 4.38125,4.55 l 4,0"
       style="fill:#252775;fill-opacity:1;fill-rule:evenodd;stroke:none"
       id="path3204" />
    <path
       d="m 143.46192,426.31317 c 1.08,0 1.99,-0.88875 1.99,-1.98875 0,-1.10125 -0.91,-1.99 -1.99,-1.99 -1.1,0 -1.98875,0.88875 -1.98875,1.99 0,1.1 0.88875,1.98875 1.98875,1.98875 z m 0,-14.17875 c 0.88875,-0.14875 1.82,-0.23375 2.7725,-0.23375 0.4025,0 0.805,0.0225 1.185,0.0425 l 0,16.99375 c 0,0.1275 0,0.25375 -0.16875,0.25375 l -2.265,-0.02 c -0.7825,0 -1.31125,0.54875 -1.31125,1.5025 l 0,14.62375 c -0.0637,-0.0225 -0.14875,-0.0225 -0.2125,-0.0425 -7.9575,-1.33375 -14.03,-8.2325 -14.03,-16.55 0,-8.3375 6.0725,-15.2375 14.03,-16.57"
       style="fill:#33b540;fill-opacity:1;fill-rule:nonzero;stroke:none"
       id="path3206" />
    <path
       d="m 159.01692,433.76317 c -0.995,0 -1.79875,0.80375 -1.79875,1.79875 0,0.99375 0.80375,1.7775 1.79875,1.7775 0.97375,0 1.7775,-0.78375 1.7775,-1.7775 0,-0.995 -0.80375,-1.79875 -1.7775,-1.79875 z m -9.6925,3.57625 c 0.995,0 1.79875,-0.78375 1.79875,-1.7775 0,-0.995 -0.80375,-1.79875 -1.79875,-1.79875 -0.97375,0 -1.7775,0.80375 -1.7775,1.79875 0,0.99375 0.80375,1.7775 1.7775,1.7775 z m 4.84625,6.68625 c -1.5025,0.6775 -3.1325,1.1425 -4.84625,1.33375 -0.65625,0.085 -1.33375,0.1275 -2.01,0.1275 -0.53,0 -1.05875,-0.0213 -1.56625,-0.0637 l 0,-14.0525 c 0,-0.12625 0,-0.2525 0.1475,-0.2525 l 2.28625,0 c 0.52875,0 0.9525,-0.25625 1.1425,-0.7 0.10625,-0.2325 0.1475,-0.48625 0.1475,-0.7825 l 0,-17.60625 c 1.65125,0.23125 3.23875,0.67625 4.69875,1.3325 1.79875,0.80375 3.45,1.92625 4.84625,3.28 3.1325,3.0675 5.1,7.32125 5.1,12.0625 0,4.6975 -1.9675,8.97375 -5.1,12.0425 -1.39625,1.35375 -3.0475,2.475 -4.84625,3.27875 z m -1.7775,-8.46375 c 0,0.99375 0.7825,1.7775 1.7775,1.7775 0.995,0 1.79875,-0.78375 1.79875,-1.7775 0,-0.995 -0.80375,-1.79875 -1.79875,-1.79875 -0.995,0 -1.7775,0.80375 -1.7775,1.79875"
       style="fill:#252775;fill-opacity:1;fill-rule:nonzero;stroke:none"
       id="path3208" />
    <path
       d="m 242.33567,431.70942 2.66625,0 -2.39125,-5.65 c -0.1275,-0.3175 -0.19,-0.3175 -0.25375,-0.3175 -0.1275,0.02 -0.2125,0.0625 -0.3175,0.3175 l -2.37,5.65 2.66625,0 z m 9.35375,6.5825 -3.93625,0 -1.5025,-3.4075 -7.7875,0 -1.44,3.4075 -4.0625,0 6.2425,-14.0525 c 0.65625,-1.44 1.67125,-2.1375 3.11125,-2.1375 1.46,0 2.4975,0.805 3.13125,2.2425 l 6.24375,13.9475"
       style="fill:#252775;fill-opacity:1;fill-rule:nonzero;stroke:none"
       id="path3210" />
    <path
       d="m 278.94692,422.27192 0.6775,0 c 5.84125,0 8.08375,2.6025 8.08375,8.12625 0,5.46 -2.4125,8.16875 -8.12625,8.16875 l -1.26875,0 c -5.77875,0 -8.1275,-2.70875 -8.1275,-8.16875 0,-5.545 2.285,-8.12625 8.085,-8.12625 l 0.67625,0 z m 5.0375,8.1675 c 0,-3.3 -0.91,-4.8875 -4.42375,-4.8875 l -1.2275,0 c -3.49125,0 -4.4225,1.5875 -4.4225,4.8875 0,3.23875 1.0575,4.82625 4.36,4.82625 l 1.35375,0 c 3.3225,0 4.36,-1.5875 4.36,-4.82625"
       style="fill:#252775;fill-opacity:1;fill-rule:nonzero;stroke:none"
       id="path3212" />
  </g>
</svg>
