<?xml version="1.0" encoding="UTF-8" standalone="no"?>
<svg
   xmlns:dc="http://purl.org/dc/elements/1.1/"
   xmlns:cc="http://creativecommons.org/ns#"
   xmlns:rdf="http://www.w3.org/1999/02/22-rdf-syntax-ns#"
   xmlns:svg="http://www.w3.org/2000/svg"
   xmlns="http://www.w3.org/2000/svg"
   xmlns:sodipodi="http://sodipodi.sourceforge.net/DTD/sodipodi-0.dtd"
   xmlns:inkscape="http://www.inkscape.org/namespaces/inkscape"
   id="svg5891"
   version="1.1"
   inkscape:version="0.47 r22583"
   width="130"
   height="75"
   sodipodi:docname="MTS_Logo.svg">
  <metadata
     id="metadata6043">
    <rdf:RDF>
      <cc:Work
         rdf:about="">
        <dc:format>image/svg+xml</dc:format>
        <dc:type
           rdf:resource="http://purl.org/dc/dcmitype/StillImage" />
        <dc:title></dc:title>
      </cc:Work>
    </rdf:RDF>
  </metadata>
  <defs
     id="defs6041">
    <inkscape:perspective
       sodipodi:type="inkscape:persp3d"
       inkscape:vp_x="0 : 0.5 : 1"
       inkscape:vp_y="0 : 1000 : 0"
       inkscape:vp_z="1 : 0.5 : 1"
       inkscape:persp3d-origin="0.5 : 0.33333333 : 1"
       id="perspective6045" />
    <inkscape:perspective
       id="perspective6929"
       inkscape:persp3d-origin="0.5 : 0.33333333 : 1"
       inkscape:vp_z="1 : 0.5 : 1"
       inkscape:vp_y="0 : 1000 : 0"
       inkscape:vp_x="0 : 0.5 : 1"
       sodipodi:type="inkscape:persp3d" />
  </defs>
  <sodipodi:namedview
     pagecolor="#ffffff"
     bordercolor="#666666"
     borderopacity="1"
     objecttolerance="10"
     gridtolerance="10"
     guidetolerance="10"
     inkscape:pageopacity="0"
     inkscape:pageshadow="2"
     inkscape:window-width="1272"
     inkscape:window-height="672"
     id="namedview6039"
     showgrid="false"
     inkscape:zoom="2.56"
     inkscape:cx="30.514706"
     inkscape:cy="30.285337"
     inkscape:window-x="24"
     inkscape:window-y="0"
     inkscape:window-maximized="0"
     inkscape:current-layer="svg5891"
     showguides="true"
     inkscape:guide-bbox="true" />
  <g
     id="font4glyph32"
     transform="translate(32.75,7.9375)" />
  <g
     id="font7glyph32"
     transform="translate(32.75,7.9375)" />
  <path
     d="m 3.25,6.140625 0,62.71875 60.65625,0 0,-62.71875 -60.65625,0 z m 29.15625,7.84375 c 4.266667,-0.03333 7.9875,2.635417 11.1875,7.96875 3.033333,4.966667 4.785417,10.6875 5.21875,17.1875 0.5,6.9 -0.695833,12.34375 -3.5625,16.34375 -3.266667,4.7 -8.295833,6.5625 -15.0625,5.5625 -5.533333,-0.866667 -9.504167,-3.810417 -11.9375,-8.84375 -2.1,-4.466667 -2.766667,-9.8 -2,-16 0.733333,-5.933333 2.566667,-11.016667 5.5,-15.25 3.133333,-4.6 6.689583,-6.93542 10.65625,-6.96875 z"
     id="path6053"
     style="fill:#ff0000" />
  <path
     d="m 126.75,6.146875 -60.65,0 0,62.7 60.65,0 0,-62.7 z"
     id="path6051"
     style="fill:#ff0000;fill-opacity:1" />
  <g
     id="font31glyph32"
     transform="translate(32.75,7.9375)" />
  <g
     id="g6832"
     transform="matrix(0.93651391,0,0,0.93651391,38.164811,7.928868)">
    <g
       style="fill:#ffffff;fill-opacity:1;stroke:none"
       transform="matrix(0.02393707,0,0,0.02380241,32.650788,40.8018)"
       id="font4glyph77">
      <path
         style="fill:#ffffff;fill-opacity:1;stroke:none"
         id="path5917"
         d="M 718,0 718,-383 526.5,0 399.5,0 212,-381 212,0 60.5,0 l 0,-754.5 179,0 252,495.5 251,-495.5 176,0 L 918.5,0 718,0" />
    </g>
    <g
       style="fill:#ffffff;fill-opacity:1;stroke:none"
       transform="matrix(0.02393707,0,0,0.02380241,73.825444,40.480468)"
       id="font4glyph83">
      <path
         style="fill:#ffffff;fill-opacity:1;stroke:none"
         id="path5923"
         d="m 571.5,-222 q 0,49 -16,92 -16,43 -51.5,75 -36,31.5 -93.5,50 -57,18.5 -141,18.5 Q 189.5,13.5 124,0 58.5,-13 22.5,-28.5 l 0,-143.5 q 15.5,7 39,15.5 23.5,8 51,14.5 28,7 57.5,11.5 29.5,4.5 55.5,4.5 61,0 92,-17 30.5,-17 30.5,-54.5 0,-19.5 -5,-33.5 -5,-14 -20,-26.5 -15,-13 -40.5,-25.5 Q 257,-296 215,-312.5 172,-329 138,-349 104.5,-368.5 82,-396 59.5,-423 47.5,-459 36,-494.5 36,-544 q 0,-50 22.5,-90.5 22.5,-40.5 62,-68.5 39,-28.5 93,-43.5 54,-15.5 116,-15.5 66,0 120,7.5 54.5,8 83,16 l 0,141.5 q -36,-9 -83,-17.5 -47,-8 -88,-8 -55.5,0 -81.5,16.5 -26,16.5 -26,45 0,16.5 3.5,29.5 3.5,13.5 18,26 14.5,12 42,25.5 27.5,13 75.5,30.5 93.5,33 136,88.5 42.5,56 42.5,139 l 0,0" />
    </g>
    <g
       style="fill:#ffffff;fill-opacity:1;stroke:none"
       transform="matrix(0.02393707,0,0,0.02380241,57.988811,40.8018)"
       id="font4glyph84">
      <path
         style="fill:#ffffff;fill-opacity:1;stroke:none"
         id="path5926"
         d="M 402.5,-622.5 402.5,0 180,0 l 0,-622.5 -175,0 0,-132 570.5,0 0,132 -173,0" />
    </g>
  </g>
</svg>
