<?xml version="1.0" encoding="UTF-8"?>
<svg width="285px" height="285px" viewBox="0 0 285 285" version="1.1" xmlns="http://www.w3.org/2000/svg" xmlns:xlink="http://www.w3.org/1999/xlink">
    <!-- Generator: Sketch 49.1 (51147) - http://www.bohemiancoding.com/sketch -->
    <title>yota</title>
    <desc>Created with Sketch.</desc>
    <defs></defs>
    <g id="Page-1" stroke="none" stroke-width="1" fill="none" fill-rule="evenodd">
        <g id="yota" transform="translate(1.000000, -1.000000)">
            <polygon id="Fill-1" fill="#FFFFFE" points="0 285 283.465 285 283.465 1.535 0 1.535"></polygon>
            <polygon id="Stroke-2" stroke="#FFFFFE" points="0 285 283.465 285 283.465 1.535 0 1.535"></polygon>
            <path d="M119.561,230.887 C119.459,230.691 119.247,230.563 119.021,230.563 L112.559,230.563 C112.355,230.563 112.169,230.66 112.054,230.829 L98.669,250.149 L85.938,230.838 C85.823,230.669 85.633,230.563 85.429,230.563 L78.666,230.563 C78.44,230.563 78.236,230.687 78.13,230.887 C78.02,231.076 78.033,231.324 78.161,231.511 L94.928,257.144 L94.928,280.744 C94.928,280.908 94.99,281.059 95.11,281.174 C95.221,281.294 95.376,281.351 95.544,281.351 L101.484,281.351 C101.643,281.351 101.798,281.289 101.909,281.174 C102.028,281.059 102.09,280.908 102.09,280.744 L102.09,257.077 L119.525,231.519 C119.649,231.324 119.667,231.086 119.561,230.887" id="Fill-3" fill="#00B6E0"></path>
            <path d="M142.259,249.817 C140.843,248.012 139.046,246.56 136.89,245.458 C134.712,244.343 132.216,243.789 129.41,243.793 C126.555,243.793 124.045,244.324 121.885,245.422 C119.76,246.498 117.959,247.941 116.52,249.738 C115.081,251.535 114.019,253.58 113.333,255.851 C112.643,258.117 112.302,260.441 112.302,262.831 C112.302,265.222 112.656,267.572 113.369,269.887 C114.081,272.206 115.157,274.286 116.595,276.102 C118.029,277.93 119.813,279.403 121.907,280.532 L122.199,280.001 L121.929,280.546 C124.103,281.635 126.607,282.165 129.41,282.165 C132.216,282.165 134.712,281.616 136.89,280.501 C139.046,279.403 140.843,277.942 142.259,276.137 C143.667,274.349 144.733,272.29 145.446,269.997 C146.163,267.714 146.513,265.372 146.513,262.981 C146.513,260.592 146.163,258.25 145.446,255.962 C144.733,253.669 143.667,251.615 142.259,249.817 M119.163,262.831 C119.163,261.149 119.379,259.503 119.813,257.9 C120.243,256.298 120.88,254.877 121.734,253.62 C122.58,252.385 123.629,251.394 124.917,250.65 C126.183,249.915 127.661,249.543 129.41,249.543 C131.153,249.543 132.632,249.915 133.894,250.65 C135.182,251.402 136.253,252.385 137.124,253.624 C137.997,254.882 138.648,256.315 139.072,257.932 C139.51,259.569 139.723,261.228 139.723,262.911 C139.723,264.584 139.51,266.244 139.072,267.877 C138.648,269.506 137.997,270.932 137.124,272.18 C136.248,273.428 135.173,274.437 133.889,275.207 C132.632,275.96 131.153,276.341 129.41,276.341 C127.714,276.341 126.262,275.96 125.001,275.207 C123.709,274.437 122.628,273.441 121.734,272.224 C120.884,270.949 120.243,269.506 119.813,267.877 C119.379,266.248 119.163,264.566 119.163,262.831" id="Fill-4" fill="#00B6E0"></path>
            <path d="M170.791,274.645 C170.703,274.485 170.553,274.384 170.38,274.349 C170.207,274.322 170.025,274.357 169.889,274.464 C169.229,274.981 168.508,275.424 167.702,275.805 C166.94,276.163 166.14,276.345 165.285,276.345 C164.355,276.341 163.665,276.102 163.116,275.632 C162.678,275.296 162.319,274.309 162.328,272.64 L162.328,250.579 L171.084,250.579 C171.243,250.579 171.398,250.518 171.509,250.402 C171.628,250.287 171.69,250.137 171.69,249.977 L171.69,245.294 C171.69,245.135 171.633,244.979 171.509,244.869 C171.398,244.745 171.243,244.684 171.084,244.684 L162.395,244.684 L162.395,235.627 C162.395,235.468 162.337,235.317 162.222,235.202 C162.107,235.087 161.952,235.02 161.793,235.02 L156.069,235.02 C155.91,235.02 155.751,235.087 155.64,235.197 C155.529,235.312 155.463,235.468 155.463,235.627 L155.463,244.684 L149.979,244.684 C149.811,244.684 149.655,244.745 149.55,244.869 C149.43,244.979 149.368,245.135 149.368,245.294 L149.368,249.977 C149.368,250.137 149.43,250.291 149.55,250.402 C149.66,250.526 149.811,250.579 149.979,250.579 L155.463,250.579 L155.463,273.233 C155.463,276.154 156.207,278.438 157.809,279.957 C159.385,281.453 161.62,282.17 164.395,282.165 C166.476,282.165 168.122,281.918 169.361,281.369 C170.521,280.859 171.685,280.165 172.863,279.297 C173.102,279.111 173.178,278.775 173.023,278.51 L170.791,274.645" id="Fill-5" fill="#00B6E0"></path>
            <path d="M201.395,247.003 C199.059,244.838 195.796,243.789 191.732,243.798 C188.7,243.798 186.147,244.258 184.079,245.219 C182.025,246.188 180.251,247.68 178.759,249.685 C178.661,249.817 178.622,249.986 178.648,250.145 C178.675,250.309 178.768,250.451 178.9,250.553 L182.915,253.372 C183.177,253.549 183.539,253.5 183.738,253.244 C184.628,252.128 185.708,251.229 187.001,250.553 C188.28,249.88 189.665,249.548 191.215,249.539 C193.494,249.548 195.119,250.145 196.243,251.292 C197.318,252.381 197.942,254.288 197.96,257.103 C195.743,257.126 193.459,257.329 191.122,257.692 C188.546,258.103 186.182,258.799 184.049,259.79 C181.898,260.786 180.091,262.149 178.666,263.853 C177.205,265.606 176.48,267.855 176.483,270.488 C176.483,272.396 176.847,274.105 177.59,275.593 C178.32,277.049 179.276,278.27 180.459,279.239 C181.636,280.209 182.995,280.939 184.521,281.436 C186.045,281.927 187.607,282.165 189.209,282.165 C191.21,282.165 193.06,281.824 194.76,281.116 C196.053,280.581 197.239,279.854 198.311,278.965 L198.487,280.802 C198.518,281.107 198.779,281.351 199.094,281.351 L204.299,281.351 C204.458,281.351 204.608,281.284 204.724,281.174 C204.839,281.059 204.9,280.904 204.9,280.74 L204.9,257.635 C204.9,252.792 203.785,249.202 201.395,247.003 M197.96,262.866 L197.96,272.959 C196.916,273.835 195.734,274.597 194.401,275.256 C193.025,275.934 191.529,276.27 189.878,276.27 C189.143,276.27 188.391,276.168 187.62,275.955 C186.881,275.756 186.213,275.424 185.606,274.95 C185.005,274.481 184.504,273.893 184.088,273.162 C183.707,272.48 183.504,271.622 183.504,270.568 C183.504,268.887 183.96,267.639 184.863,266.664 C185.806,265.655 187.001,264.872 188.488,264.336 C189.997,263.778 191.644,263.406 193.436,263.221 C195.021,263.044 196.53,262.929 197.96,262.866" id="Fill-6" fill="#00B6E0"></path>
            <path d="M188.01,72.113 C198.774,61.171 205.419,45.991 205.41,29.395 L205.41,17.683 C205.41,10.33 199.452,4.37 192.1,4.37 C184.734,4.37 178.781,10.33 178.781,17.683 L178.781,29.395 C178.776,38.867 175.036,47.292 169.008,53.447 C162.957,59.584 154.816,63.287 145.716,63.292 C136.611,63.287 128.48,59.584 122.42,53.447 C116.4,47.292 112.656,38.867 112.656,29.395 L112.656,17.683 C112.656,10.33 106.693,4.37 99.341,4.37 C91.989,4.37 86.022,10.33 86.022,17.683 L86.022,29.395 C86.018,45.991 92.662,61.171 103.422,72.113 C111.182,80.036 121.203,85.812 132.398,88.407 L132.398,116.434 C121.203,119.028 111.182,124.809 103.422,132.736 C92.662,143.678 86.018,158.848 86.022,175.455 L86.022,187.163 C86.022,194.511 91.989,200.473 99.341,200.473 C106.693,200.473 112.656,194.511 112.656,187.163 L112.656,175.455 C112.656,165.982 116.4,157.546 122.42,151.398 C128.48,145.259 136.611,141.558 145.716,141.549 C154.816,141.558 162.957,145.259 169.008,151.398 C175.036,157.546 178.776,165.982 178.781,175.455 L178.781,187.163 C178.781,194.511 184.734,200.473 192.1,200.473 C199.452,200.473 205.41,194.511 205.41,187.163 L205.41,175.455 C205.419,158.848 198.774,143.678 188.01,132.736 C180.251,124.809 170.23,119.028 159.035,116.434 L159.035,88.407 C170.23,85.812 180.251,80.036 188.01,72.113" id="Fill-7" fill="#00B6E0"></path>
            <path d="M145.716,197.666 C158.451,197.666 168.773,187.353 168.773,174.614 C168.773,161.875 158.451,151.553 145.716,151.553 C132.981,151.553 122.659,161.875 122.659,174.614 C122.659,187.353 132.981,197.666 145.716,197.666" id="Fill-8" fill="#00B6E0"></path>
        </g>
    </g>
</svg>